<mxfile host="app.diagrams.net" agent="Mozilla/5.0 (X11; Linux x86_64) AppleWebKit/537.36 (KHTML, like Gecko) Chrome/129.0.0.0 Safari/537.36" version="24.7.17">
  <diagram id="C5RBs43oDa-KdzZeNtuy" name="Page-1">
    <mxGraphModel dx="1836" dy="587" grid="1" gridSize="10" guides="1" tooltips="1" connect="1" arrows="1" fold="1" page="1" pageScale="1" pageWidth="827" pageHeight="1169" math="0" shadow="0">
      <root>
        <mxCell id="WIyWlLk6GJQsqaUBKTNV-0" />
        <mxCell id="WIyWlLk6GJQsqaUBKTNV-1" parent="WIyWlLk6GJQsqaUBKTNV-0" />
        <mxCell id="aP-amQ2ksOcE-99S3hjg-31" value="" style="rounded=0;whiteSpace=wrap;html=1;" vertex="1" parent="WIyWlLk6GJQsqaUBKTNV-1">
          <mxGeometry x="-150" y="120" width="110" height="30" as="geometry" />
        </mxCell>
        <mxCell id="zkfFHV4jXpPFQw0GAbJ--0" value="User" style="swimlane;fontStyle=2;align=center;verticalAlign=top;childLayout=stackLayout;horizontal=1;startSize=26;horizontalStack=0;resizeParent=1;resizeLast=0;collapsible=1;marginBottom=0;rounded=0;shadow=0;strokeWidth=1;" parent="WIyWlLk6GJQsqaUBKTNV-1" vertex="1">
          <mxGeometry x="80" y="120" width="280" height="160" as="geometry">
            <mxRectangle x="230" y="140" width="160" height="26" as="alternateBounds" />
          </mxGeometry>
        </mxCell>
        <mxCell id="zkfFHV4jXpPFQw0GAbJ--1" value="id - id в постгрес&#xa;" style="text;align=left;verticalAlign=top;spacingLeft=4;spacingRight=4;overflow=hidden;rotatable=0;points=[[0,0.5],[1,0.5]];portConstraint=eastwest;" parent="zkfFHV4jXpPFQw0GAbJ--0" vertex="1">
          <mxGeometry y="26" width="280" height="26" as="geometry" />
        </mxCell>
        <mxCell id="aP-amQ2ksOcE-99S3hjg-2" value="bot_user_id - id телеграм" style="text;align=left;verticalAlign=top;spacingLeft=4;spacingRight=4;overflow=hidden;rotatable=0;points=[[0,0.5],[1,0.5]];portConstraint=eastwest;" vertex="1" parent="zkfFHV4jXpPFQw0GAbJ--0">
          <mxGeometry y="52" width="280" height="26" as="geometry" />
        </mxCell>
        <mxCell id="zkfFHV4jXpPFQw0GAbJ--2" value="name - введенное имя пользователем" style="text;align=left;verticalAlign=top;spacingLeft=4;spacingRight=4;overflow=hidden;rotatable=0;points=[[0,0.5],[1,0.5]];portConstraint=eastwest;rounded=0;shadow=0;html=0;" parent="zkfFHV4jXpPFQw0GAbJ--0" vertex="1">
          <mxGeometry y="78" width="280" height="26" as="geometry" />
        </mxCell>
        <mxCell id="zkfFHV4jXpPFQw0GAbJ--3" value="is_activate - флаг авторизации" style="text;align=left;verticalAlign=top;spacingLeft=4;spacingRight=4;overflow=hidden;rotatable=0;points=[[0,0.5],[1,0.5]];portConstraint=eastwest;rounded=0;shadow=0;html=0;" parent="zkfFHV4jXpPFQw0GAbJ--0" vertex="1">
          <mxGeometry y="104" width="280" height="22" as="geometry" />
        </mxCell>
        <mxCell id="aP-amQ2ksOcE-99S3hjg-1" value="phone - телефон введенный пользователем" style="text;align=left;verticalAlign=top;spacingLeft=4;spacingRight=4;overflow=hidden;rotatable=0;points=[[0,0.5],[1,0.5]];portConstraint=eastwest;rounded=0;shadow=0;html=0;" vertex="1" parent="zkfFHV4jXpPFQw0GAbJ--0">
          <mxGeometry y="126" width="280" height="34" as="geometry" />
        </mxCell>
        <mxCell id="aP-amQ2ksOcE-99S3hjg-3" value="Dish" style="swimlane;fontStyle=2;align=center;verticalAlign=top;childLayout=stackLayout;horizontal=1;startSize=26;horizontalStack=0;resizeParent=1;resizeLast=0;collapsible=1;marginBottom=0;rounded=0;shadow=0;strokeWidth=1;" vertex="1" parent="WIyWlLk6GJQsqaUBKTNV-1">
          <mxGeometry x="400" y="120" width="239.5" height="250" as="geometry">
            <mxRectangle x="230" y="140" width="160" height="26" as="alternateBounds" />
          </mxGeometry>
        </mxCell>
        <mxCell id="aP-amQ2ksOcE-99S3hjg-4" value="id - id в постгресе&#xa;" style="text;align=left;verticalAlign=top;spacingLeft=4;spacingRight=4;overflow=hidden;rotatable=0;points=[[0,0.5],[1,0.5]];portConstraint=eastwest;" vertex="1" parent="aP-amQ2ksOcE-99S3hjg-3">
          <mxGeometry y="26" width="239.5" height="26" as="geometry" />
        </mxCell>
        <mxCell id="aP-amQ2ksOcE-99S3hjg-5" value="dish_name - название блюда" style="text;align=left;verticalAlign=top;spacingLeft=4;spacingRight=4;overflow=hidden;rotatable=0;points=[[0,0.5],[1,0.5]];portConstraint=eastwest;" vertex="1" parent="aP-amQ2ksOcE-99S3hjg-3">
          <mxGeometry y="52" width="239.5" height="26" as="geometry" />
        </mxCell>
        <mxCell id="aP-amQ2ksOcE-99S3hjg-6" value="category_id - id категории" style="text;align=left;verticalAlign=top;spacingLeft=4;spacingRight=4;overflow=hidden;rotatable=0;points=[[0,0.5],[1,0.5]];portConstraint=eastwest;rounded=0;shadow=0;html=0;" vertex="1" parent="aP-amQ2ksOcE-99S3hjg-3">
          <mxGeometry y="78" width="239.5" height="26" as="geometry" />
        </mxCell>
        <mxCell id="aP-amQ2ksOcE-99S3hjg-7" value="quantity - количество в ассортименте " style="text;align=left;verticalAlign=top;spacingLeft=4;spacingRight=4;overflow=hidden;rotatable=0;points=[[0,0.5],[1,0.5]];portConstraint=eastwest;rounded=0;shadow=0;html=0;" vertex="1" parent="aP-amQ2ksOcE-99S3hjg-3">
          <mxGeometry y="104" width="239.5" height="26" as="geometry" />
        </mxCell>
        <mxCell id="aP-amQ2ksOcE-99S3hjg-8" value="kilocalories - килокалории " style="text;align=left;verticalAlign=top;spacingLeft=4;spacingRight=4;overflow=hidden;rotatable=0;points=[[0,0.5],[1,0.5]];portConstraint=eastwest;rounded=0;shadow=0;html=0;" vertex="1" parent="aP-amQ2ksOcE-99S3hjg-3">
          <mxGeometry y="130" width="239.5" height="30" as="geometry" />
        </mxCell>
        <mxCell id="aP-amQ2ksOcE-99S3hjg-9" value="energy_costs - энергозатраты" style="text;align=left;verticalAlign=top;spacingLeft=4;spacingRight=4;overflow=hidden;rotatable=0;points=[[0,0.5],[1,0.5]];portConstraint=eastwest;rounded=0;shadow=0;html=0;" vertex="1" parent="aP-amQ2ksOcE-99S3hjg-3">
          <mxGeometry y="160" width="239.5" height="30" as="geometry" />
        </mxCell>
        <mxCell id="aP-amQ2ksOcE-99S3hjg-10" value="labor_costs - трудозатраты" style="text;align=left;verticalAlign=top;spacingLeft=4;spacingRight=4;overflow=hidden;rotatable=0;points=[[0,0.5],[1,0.5]];portConstraint=eastwest;rounded=0;shadow=0;html=0;" vertex="1" parent="aP-amQ2ksOcE-99S3hjg-3">
          <mxGeometry y="190" width="239.5" height="30" as="geometry" />
        </mxCell>
        <mxCell id="aP-amQ2ksOcE-99S3hjg-11" value="cost_price - себестоимость" style="text;align=left;verticalAlign=top;spacingLeft=4;spacingRight=4;overflow=hidden;rotatable=0;points=[[0,0.5],[1,0.5]];portConstraint=eastwest;rounded=0;shadow=0;html=0;" vertex="1" parent="aP-amQ2ksOcE-99S3hjg-3">
          <mxGeometry y="220" width="239.5" height="30" as="geometry" />
        </mxCell>
        <mxCell id="aP-amQ2ksOcE-99S3hjg-13" value="categories_dishes" style="swimlane;fontStyle=2;align=center;verticalAlign=top;childLayout=stackLayout;horizontal=1;startSize=26;horizontalStack=0;resizeParent=1;resizeLast=0;collapsible=1;marginBottom=0;rounded=0;shadow=0;strokeWidth=1;" vertex="1" parent="WIyWlLk6GJQsqaUBKTNV-1">
          <mxGeometry x="680" y="120" width="226" height="80" as="geometry">
            <mxRectangle x="230" y="140" width="160" height="26" as="alternateBounds" />
          </mxGeometry>
        </mxCell>
        <mxCell id="aP-amQ2ksOcE-99S3hjg-14" value="id - id в постгресе&#xa;" style="text;align=left;verticalAlign=top;spacingLeft=4;spacingRight=4;overflow=hidden;rotatable=0;points=[[0,0.5],[1,0.5]];portConstraint=eastwest;" vertex="1" parent="aP-amQ2ksOcE-99S3hjg-13">
          <mxGeometry y="26" width="226" height="26" as="geometry" />
        </mxCell>
        <mxCell id="aP-amQ2ksOcE-99S3hjg-15" value="dish_name - название категории" style="text;align=left;verticalAlign=top;spacingLeft=4;spacingRight=4;overflow=hidden;rotatable=0;points=[[0,0.5],[1,0.5]];portConstraint=eastwest;" vertex="1" parent="aP-amQ2ksOcE-99S3hjg-13">
          <mxGeometry y="52" width="226" height="26" as="geometry" />
        </mxCell>
        <mxCell id="aP-amQ2ksOcE-99S3hjg-22" style="edgeStyle=orthogonalEdgeStyle;rounded=0;orthogonalLoop=1;jettySize=auto;html=1;exitX=1;exitY=0.5;exitDx=0;exitDy=0;entryX=0;entryY=0.5;entryDx=0;entryDy=0;" edge="1" parent="WIyWlLk6GJQsqaUBKTNV-1" source="aP-amQ2ksOcE-99S3hjg-6" target="aP-amQ2ksOcE-99S3hjg-14">
          <mxGeometry relative="1" as="geometry" />
        </mxCell>
        <mxCell id="aP-amQ2ksOcE-99S3hjg-23" value="Staff" style="swimlane;fontStyle=2;align=center;verticalAlign=top;childLayout=stackLayout;horizontal=1;startSize=26;horizontalStack=0;resizeParent=1;resizeLast=0;collapsible=1;marginBottom=0;rounded=0;shadow=0;strokeWidth=1;" vertex="1" parent="WIyWlLk6GJQsqaUBKTNV-1">
          <mxGeometry x="80" y="480" width="160" height="200" as="geometry">
            <mxRectangle x="230" y="140" width="160" height="26" as="alternateBounds" />
          </mxGeometry>
        </mxCell>
        <mxCell id="aP-amQ2ksOcE-99S3hjg-24" value="id - id в постгрес&#xa;" style="text;align=left;verticalAlign=top;spacingLeft=4;spacingRight=4;overflow=hidden;rotatable=0;points=[[0,0.5],[1,0.5]];portConstraint=eastwest;" vertex="1" parent="aP-amQ2ksOcE-99S3hjg-23">
          <mxGeometry y="26" width="160" height="26" as="geometry" />
        </mxCell>
        <mxCell id="aP-amQ2ksOcE-99S3hjg-25" value="job_title - должность" style="text;align=left;verticalAlign=top;spacingLeft=4;spacingRight=4;overflow=hidden;rotatable=0;points=[[0,0.5],[1,0.5]];portConstraint=eastwest;" vertex="1" parent="aP-amQ2ksOcE-99S3hjg-23">
          <mxGeometry y="52" width="160" height="28" as="geometry" />
        </mxCell>
        <mxCell id="aP-amQ2ksOcE-99S3hjg-26" value="workshop_id - id цеха" style="text;align=left;verticalAlign=top;spacingLeft=4;spacingRight=4;overflow=hidden;rotatable=0;points=[[0,0.5],[1,0.5]];portConstraint=eastwest;rounded=0;shadow=0;html=0;" vertex="1" parent="aP-amQ2ksOcE-99S3hjg-23">
          <mxGeometry y="80" width="160" height="32" as="geometry" />
        </mxCell>
        <mxCell id="aP-amQ2ksOcE-99S3hjg-27" value="salary - зарплата" style="text;align=left;verticalAlign=top;spacingLeft=4;spacingRight=4;overflow=hidden;rotatable=0;points=[[0,0.5],[1,0.5]];portConstraint=eastwest;rounded=0;shadow=0;html=0;" vertex="1" parent="aP-amQ2ksOcE-99S3hjg-23">
          <mxGeometry y="112" width="160" height="28" as="geometry" />
        </mxCell>
        <mxCell id="aP-amQ2ksOcE-99S3hjg-28" value="cost_day - стоимость дня" style="text;align=left;verticalAlign=top;spacingLeft=4;spacingRight=4;overflow=hidden;rotatable=0;points=[[0,0.5],[1,0.5]];portConstraint=eastwest;rounded=0;shadow=0;html=0;" vertex="1" parent="aP-amQ2ksOcE-99S3hjg-23">
          <mxGeometry y="140" width="160" height="30" as="geometry" />
        </mxCell>
        <mxCell id="aP-amQ2ksOcE-99S3hjg-35" value="cf_status - КФ статуса" style="text;align=left;verticalAlign=top;spacingLeft=4;spacingRight=4;overflow=hidden;rotatable=0;points=[[0,0.5],[1,0.5]];portConstraint=eastwest;rounded=0;shadow=0;html=0;" vertex="1" parent="aP-amQ2ksOcE-99S3hjg-23">
          <mxGeometry y="170" width="160" height="30" as="geometry" />
        </mxCell>
        <mxCell id="aP-amQ2ksOcE-99S3hjg-30" value="структура меню" style="text;align=left;verticalAlign=top;spacingLeft=4;spacingRight=4;overflow=hidden;rotatable=0;points=[[0,0.5],[1,0.5]];portConstraint=eastwest;" vertex="1" parent="WIyWlLk6GJQsqaUBKTNV-1">
          <mxGeometry x="-150" y="120" width="110" height="26" as="geometry" />
        </mxCell>
        <mxCell id="aP-amQ2ksOcE-99S3hjg-33" value="" style="rounded=0;whiteSpace=wrap;html=1;" vertex="1" parent="WIyWlLk6GJQsqaUBKTNV-1">
          <mxGeometry x="-160" y="480" width="110" height="30" as="geometry" />
        </mxCell>
        <mxCell id="aP-amQ2ksOcE-99S3hjg-34" value="персонал" style="text;align=left;verticalAlign=top;spacingLeft=4;spacingRight=4;overflow=hidden;rotatable=0;points=[[0,0.5],[1,0.5]];portConstraint=eastwest;" vertex="1" parent="WIyWlLk6GJQsqaUBKTNV-1">
          <mxGeometry x="-160" y="480" width="110" height="26" as="geometry" />
        </mxCell>
        <mxCell id="aP-amQ2ksOcE-99S3hjg-36" value="Workshop" style="swimlane;fontStyle=2;align=center;verticalAlign=top;childLayout=stackLayout;horizontal=1;startSize=26;horizontalStack=0;resizeParent=1;resizeLast=0;collapsible=1;marginBottom=0;rounded=0;shadow=0;strokeWidth=1;" vertex="1" parent="WIyWlLk6GJQsqaUBKTNV-1">
          <mxGeometry x="280" y="480" width="200" height="80" as="geometry">
            <mxRectangle x="230" y="140" width="160" height="26" as="alternateBounds" />
          </mxGeometry>
        </mxCell>
        <mxCell id="aP-amQ2ksOcE-99S3hjg-37" value="id - id в постгрес&#xa;" style="text;align=left;verticalAlign=top;spacingLeft=4;spacingRight=4;overflow=hidden;rotatable=0;points=[[0,0.5],[1,0.5]];portConstraint=eastwest;" vertex="1" parent="aP-amQ2ksOcE-99S3hjg-36">
          <mxGeometry y="26" width="200" height="26" as="geometry" />
        </mxCell>
        <mxCell id="aP-amQ2ksOcE-99S3hjg-38" value="workshop_name - название цеха" style="text;align=left;verticalAlign=top;spacingLeft=4;spacingRight=4;overflow=hidden;rotatable=0;points=[[0,0.5],[1,0.5]];portConstraint=eastwest;" vertex="1" parent="aP-amQ2ksOcE-99S3hjg-36">
          <mxGeometry y="52" width="200" height="28" as="geometry" />
        </mxCell>
        <mxCell id="aP-amQ2ksOcE-99S3hjg-43" style="edgeStyle=orthogonalEdgeStyle;rounded=0;orthogonalLoop=1;jettySize=auto;html=1;exitX=1;exitY=0.5;exitDx=0;exitDy=0;entryX=0;entryY=0.5;entryDx=0;entryDy=0;" edge="1" parent="WIyWlLk6GJQsqaUBKTNV-1" source="aP-amQ2ksOcE-99S3hjg-26" target="aP-amQ2ksOcE-99S3hjg-37">
          <mxGeometry relative="1" as="geometry" />
        </mxCell>
        <mxCell id="aP-amQ2ksOcE-99S3hjg-44" value="Client" style="swimlane;fontStyle=2;align=center;verticalAlign=top;childLayout=stackLayout;horizontal=1;startSize=26;horizontalStack=0;resizeParent=1;resizeLast=0;collapsible=1;marginBottom=0;rounded=0;shadow=0;strokeWidth=1;" vertex="1" parent="WIyWlLk6GJQsqaUBKTNV-1">
          <mxGeometry x="80" y="760" width="250" height="230" as="geometry">
            <mxRectangle x="230" y="140" width="160" height="26" as="alternateBounds" />
          </mxGeometry>
        </mxCell>
        <mxCell id="aP-amQ2ksOcE-99S3hjg-45" value="id - id в постгрес&#xa;" style="text;align=left;verticalAlign=top;spacingLeft=4;spacingRight=4;overflow=hidden;rotatable=0;points=[[0,0.5],[1,0.5]];portConstraint=eastwest;" vertex="1" parent="aP-amQ2ksOcE-99S3hjg-44">
          <mxGeometry y="26" width="250" height="26" as="geometry" />
        </mxCell>
        <mxCell id="aP-amQ2ksOcE-99S3hjg-46" value="name - имя" style="text;align=left;verticalAlign=top;spacingLeft=4;spacingRight=4;overflow=hidden;rotatable=0;points=[[0,0.5],[1,0.5]];portConstraint=eastwest;" vertex="1" parent="aP-amQ2ksOcE-99S3hjg-44">
          <mxGeometry y="52" width="250" height="28" as="geometry" />
        </mxCell>
        <mxCell id="aP-amQ2ksOcE-99S3hjg-47" value="phone - телефон" style="text;align=left;verticalAlign=top;spacingLeft=4;spacingRight=4;overflow=hidden;rotatable=0;points=[[0,0.5],[1,0.5]];portConstraint=eastwest;rounded=0;shadow=0;html=0;" vertex="1" parent="aP-amQ2ksOcE-99S3hjg-44">
          <mxGeometry y="80" width="250" height="32" as="geometry" />
        </mxCell>
        <mxCell id="aP-amQ2ksOcE-99S3hjg-48" value="status - статус (boolean)" style="text;align=left;verticalAlign=top;spacingLeft=4;spacingRight=4;overflow=hidden;rotatable=0;points=[[0,0.5],[1,0.5]];portConstraint=eastwest;rounded=0;shadow=0;html=0;" vertex="1" parent="aP-amQ2ksOcE-99S3hjg-44">
          <mxGeometry y="112" width="250" height="28" as="geometry" />
        </mxCell>
        <mxCell id="aP-amQ2ksOcE-99S3hjg-49" value="dish_favorite_id -  любимое блюдо" style="text;align=left;verticalAlign=top;spacingLeft=4;spacingRight=4;overflow=hidden;rotatable=0;points=[[0,0.5],[1,0.5]];portConstraint=eastwest;rounded=0;shadow=0;html=0;" vertex="1" parent="aP-amQ2ksOcE-99S3hjg-44">
          <mxGeometry y="140" width="250" height="30" as="geometry" />
        </mxCell>
        <mxCell id="aP-amQ2ksOcE-99S3hjg-50" value="date_registration - дата регистрации" style="text;align=left;verticalAlign=top;spacingLeft=4;spacingRight=4;overflow=hidden;rotatable=0;points=[[0,0.5],[1,0.5]];portConstraint=eastwest;rounded=0;shadow=0;html=0;" vertex="1" parent="aP-amQ2ksOcE-99S3hjg-44">
          <mxGeometry y="170" width="250" height="30" as="geometry" />
        </mxCell>
        <mxCell id="aP-amQ2ksOcE-99S3hjg-56" value="date_last_order  - дата последнего заказа" style="text;align=left;verticalAlign=top;spacingLeft=4;spacingRight=4;overflow=hidden;rotatable=0;points=[[0,0.5],[1,0.5]];portConstraint=eastwest;rounded=0;shadow=0;html=0;" vertex="1" parent="aP-amQ2ksOcE-99S3hjg-44">
          <mxGeometry y="200" width="250" height="30" as="geometry" />
        </mxCell>
        <mxCell id="aP-amQ2ksOcE-99S3hjg-51" value="" style="endArrow=none;html=1;rounded=0;" edge="1" parent="WIyWlLk6GJQsqaUBKTNV-1">
          <mxGeometry width="50" height="50" relative="1" as="geometry">
            <mxPoint x="-80" y="400" as="sourcePoint" />
            <mxPoint x="840" y="400" as="targetPoint" />
          </mxGeometry>
        </mxCell>
        <mxCell id="aP-amQ2ksOcE-99S3hjg-52" value="" style="endArrow=none;html=1;rounded=0;" edge="1" parent="WIyWlLk6GJQsqaUBKTNV-1">
          <mxGeometry width="50" height="50" relative="1" as="geometry">
            <mxPoint x="-80" y="720" as="sourcePoint" />
            <mxPoint x="840" y="720" as="targetPoint" />
          </mxGeometry>
        </mxCell>
        <mxCell id="aP-amQ2ksOcE-99S3hjg-53" value="" style="rounded=0;whiteSpace=wrap;html=1;" vertex="1" parent="WIyWlLk6GJQsqaUBKTNV-1">
          <mxGeometry x="-160" y="760" width="110" height="30" as="geometry" />
        </mxCell>
        <mxCell id="aP-amQ2ksOcE-99S3hjg-54" value="клиенты" style="text;align=left;verticalAlign=top;spacingLeft=4;spacingRight=4;overflow=hidden;rotatable=0;points=[[0,0.5],[1,0.5]];portConstraint=eastwest;" vertex="1" parent="WIyWlLk6GJQsqaUBKTNV-1">
          <mxGeometry x="-160" y="760" width="110" height="26" as="geometry" />
        </mxCell>
        <mxCell id="aP-amQ2ksOcE-99S3hjg-58" style="edgeStyle=orthogonalEdgeStyle;rounded=0;orthogonalLoop=1;jettySize=auto;html=1;exitX=1;exitY=0.5;exitDx=0;exitDy=0;" edge="1" parent="WIyWlLk6GJQsqaUBKTNV-1" source="aP-amQ2ksOcE-99S3hjg-49">
          <mxGeometry relative="1" as="geometry">
            <mxPoint x="400" y="880" as="targetPoint" />
          </mxGeometry>
        </mxCell>
        <mxCell id="aP-amQ2ksOcE-99S3hjg-59" value="Order" style="swimlane;fontStyle=2;align=center;verticalAlign=top;childLayout=stackLayout;horizontal=1;startSize=26;horizontalStack=0;resizeParent=1;resizeLast=0;collapsible=1;marginBottom=0;rounded=0;shadow=0;strokeWidth=1;" vertex="1" parent="WIyWlLk6GJQsqaUBKTNV-1">
          <mxGeometry x="481" y="760" width="250" height="260" as="geometry">
            <mxRectangle x="230" y="140" width="160" height="26" as="alternateBounds" />
          </mxGeometry>
        </mxCell>
        <mxCell id="aP-amQ2ksOcE-99S3hjg-60" value="id - id в постгрес&#xa;" style="text;align=left;verticalAlign=top;spacingLeft=4;spacingRight=4;overflow=hidden;rotatable=0;points=[[0,0.5],[1,0.5]];portConstraint=eastwest;" vertex="1" parent="aP-amQ2ksOcE-99S3hjg-59">
          <mxGeometry y="26" width="250" height="26" as="geometry" />
        </mxCell>
        <mxCell id="aP-amQ2ksOcE-99S3hjg-61" value="name - имя" style="text;align=left;verticalAlign=top;spacingLeft=4;spacingRight=4;overflow=hidden;rotatable=0;points=[[0,0.5],[1,0.5]];portConstraint=eastwest;" vertex="1" parent="aP-amQ2ksOcE-99S3hjg-59">
          <mxGeometry y="52" width="250" height="28" as="geometry" />
        </mxCell>
        <mxCell id="aP-amQ2ksOcE-99S3hjg-62" value="phone - телефон" style="text;align=left;verticalAlign=top;spacingLeft=4;spacingRight=4;overflow=hidden;rotatable=0;points=[[0,0.5],[1,0.5]];portConstraint=eastwest;rounded=0;shadow=0;html=0;" vertex="1" parent="aP-amQ2ksOcE-99S3hjg-59">
          <mxGeometry y="80" width="250" height="32" as="geometry" />
        </mxCell>
        <mxCell id="aP-amQ2ksOcE-99S3hjg-63" value="status_id - id статуса" style="text;align=left;verticalAlign=top;spacingLeft=4;spacingRight=4;overflow=hidden;rotatable=0;points=[[0,0.5],[1,0.5]];portConstraint=eastwest;rounded=0;shadow=0;html=0;" vertex="1" parent="aP-amQ2ksOcE-99S3hjg-59">
          <mxGeometry y="112" width="250" height="28" as="geometry" />
        </mxCell>
        <mxCell id="aP-amQ2ksOcE-99S3hjg-64" value="order_type_id -  id типа заказа" style="text;align=left;verticalAlign=top;spacingLeft=4;spacingRight=4;overflow=hidden;rotatable=0;points=[[0,0.5],[1,0.5]];portConstraint=eastwest;rounded=0;shadow=0;html=0;" vertex="1" parent="aP-amQ2ksOcE-99S3hjg-59">
          <mxGeometry y="140" width="250" height="30" as="geometry" />
        </mxCell>
        <mxCell id="aP-amQ2ksOcE-99S3hjg-65" value="sum - сумма" style="text;align=left;verticalAlign=top;spacingLeft=4;spacingRight=4;overflow=hidden;rotatable=0;points=[[0,0.5],[1,0.5]];portConstraint=eastwest;rounded=0;shadow=0;html=0;" vertex="1" parent="aP-amQ2ksOcE-99S3hjg-59">
          <mxGeometry y="170" width="250" height="30" as="geometry" />
        </mxCell>
        <mxCell id="aP-amQ2ksOcE-99S3hjg-66" value="date_order  - дата заказа" style="text;align=left;verticalAlign=top;spacingLeft=4;spacingRight=4;overflow=hidden;rotatable=0;points=[[0,0.5],[1,0.5]];portConstraint=eastwest;rounded=0;shadow=0;html=0;" vertex="1" parent="aP-amQ2ksOcE-99S3hjg-59">
          <mxGeometry y="200" width="250" height="30" as="geometry" />
        </mxCell>
        <mxCell id="aP-amQ2ksOcE-99S3hjg-106" value="payment_bonuses  - оплата бонусами" style="text;align=left;verticalAlign=top;spacingLeft=4;spacingRight=4;overflow=hidden;rotatable=0;points=[[0,0.5],[1,0.5]];portConstraint=eastwest;rounded=0;shadow=0;html=0;" vertex="1" parent="aP-amQ2ksOcE-99S3hjg-59">
          <mxGeometry y="230" width="250" height="30" as="geometry" />
        </mxCell>
        <mxCell id="aP-amQ2ksOcE-99S3hjg-67" value="Order_status" style="swimlane;fontStyle=2;align=center;verticalAlign=top;childLayout=stackLayout;horizontal=1;startSize=26;horizontalStack=0;resizeParent=1;resizeLast=0;collapsible=1;marginBottom=0;rounded=0;shadow=0;strokeWidth=1;" vertex="1" parent="WIyWlLk6GJQsqaUBKTNV-1">
          <mxGeometry x="761" y="760" width="180" height="80" as="geometry">
            <mxRectangle x="230" y="140" width="160" height="26" as="alternateBounds" />
          </mxGeometry>
        </mxCell>
        <mxCell id="aP-amQ2ksOcE-99S3hjg-68" value="id - id в постгрес&#xa;" style="text;align=left;verticalAlign=top;spacingLeft=4;spacingRight=4;overflow=hidden;rotatable=0;points=[[0,0.5],[1,0.5]];portConstraint=eastwest;" vertex="1" parent="aP-amQ2ksOcE-99S3hjg-67">
          <mxGeometry y="26" width="180" height="26" as="geometry" />
        </mxCell>
        <mxCell id="aP-amQ2ksOcE-99S3hjg-69" value="order_status_name - название" style="text;align=left;verticalAlign=top;spacingLeft=4;spacingRight=4;overflow=hidden;rotatable=0;points=[[0,0.5],[1,0.5]];portConstraint=eastwest;" vertex="1" parent="aP-amQ2ksOcE-99S3hjg-67">
          <mxGeometry y="52" width="180" height="28" as="geometry" />
        </mxCell>
        <mxCell id="aP-amQ2ksOcE-99S3hjg-75" value="" style="shape=table;startSize=0;container=1;collapsible=0;childLayout=tableLayout;fontSize=11;fillColor=none;strokeColor=none;" vertex="1" parent="WIyWlLk6GJQsqaUBKTNV-1">
          <mxGeometry x="962" y="760" width="110" height="60" as="geometry" />
        </mxCell>
        <mxCell id="aP-amQ2ksOcE-99S3hjg-76" value="" style="shape=tableRow;horizontal=0;startSize=0;swimlaneHead=0;swimlaneBody=0;strokeColor=inherit;top=0;left=0;bottom=0;right=0;collapsible=0;dropTarget=0;fillColor=none;points=[[0,0.5],[1,0.5]];portConstraint=eastwest;fontSize=16;" vertex="1" parent="aP-amQ2ksOcE-99S3hjg-75">
          <mxGeometry width="110" height="15" as="geometry" />
        </mxCell>
        <mxCell id="aP-amQ2ksOcE-99S3hjg-77" value="не подтвержден" style="shape=partialRectangle;html=1;whiteSpace=wrap;connectable=0;strokeColor=inherit;overflow=hidden;fillColor=none;top=0;left=0;bottom=0;right=0;pointerEvents=1;fontSize=12;align=left;spacingLeft=5;" vertex="1" parent="aP-amQ2ksOcE-99S3hjg-76">
          <mxGeometry width="110" height="15" as="geometry">
            <mxRectangle width="110" height="15" as="alternateBounds" />
          </mxGeometry>
        </mxCell>
        <mxCell id="aP-amQ2ksOcE-99S3hjg-78" value="" style="shape=tableRow;horizontal=0;startSize=0;swimlaneHead=0;swimlaneBody=0;strokeColor=inherit;top=0;left=0;bottom=0;right=0;collapsible=0;dropTarget=0;fillColor=none;points=[[0,0.5],[1,0.5]];portConstraint=eastwest;fontSize=16;" vertex="1" parent="aP-amQ2ksOcE-99S3hjg-75">
          <mxGeometry y="15" width="110" height="15" as="geometry" />
        </mxCell>
        <mxCell id="aP-amQ2ksOcE-99S3hjg-79" value="ожидает готовки" style="shape=partialRectangle;html=1;whiteSpace=wrap;connectable=0;strokeColor=inherit;overflow=hidden;fillColor=none;top=0;left=0;bottom=0;right=0;pointerEvents=1;fontSize=12;align=left;spacingLeft=5;" vertex="1" parent="aP-amQ2ksOcE-99S3hjg-78">
          <mxGeometry width="110" height="15" as="geometry">
            <mxRectangle width="110" height="15" as="alternateBounds" />
          </mxGeometry>
        </mxCell>
        <mxCell id="aP-amQ2ksOcE-99S3hjg-80" value="" style="shape=tableRow;horizontal=0;startSize=0;swimlaneHead=0;swimlaneBody=0;strokeColor=inherit;top=0;left=0;bottom=0;right=0;collapsible=0;dropTarget=0;fillColor=none;points=[[0,0.5],[1,0.5]];portConstraint=eastwest;fontSize=16;" vertex="1" parent="aP-amQ2ksOcE-99S3hjg-75">
          <mxGeometry y="30" width="110" height="15" as="geometry" />
        </mxCell>
        <mxCell id="aP-amQ2ksOcE-99S3hjg-81" value="отменён" style="shape=partialRectangle;html=1;whiteSpace=wrap;connectable=0;strokeColor=inherit;overflow=hidden;fillColor=none;top=0;left=0;bottom=0;right=0;pointerEvents=1;fontSize=12;align=left;spacingLeft=5;" vertex="1" parent="aP-amQ2ksOcE-99S3hjg-80">
          <mxGeometry width="110" height="15" as="geometry">
            <mxRectangle width="110" height="15" as="alternateBounds" />
          </mxGeometry>
        </mxCell>
        <mxCell id="aP-amQ2ksOcE-99S3hjg-82" style="shape=tableRow;horizontal=0;startSize=0;swimlaneHead=0;swimlaneBody=0;strokeColor=inherit;top=0;left=0;bottom=0;right=0;collapsible=0;dropTarget=0;fillColor=none;points=[[0,0.5],[1,0.5]];portConstraint=eastwest;fontSize=16;" vertex="1" parent="aP-amQ2ksOcE-99S3hjg-75">
          <mxGeometry y="45" width="110" height="15" as="geometry" />
        </mxCell>
        <mxCell id="aP-amQ2ksOcE-99S3hjg-83" value="завершён" style="shape=partialRectangle;html=1;whiteSpace=wrap;connectable=0;strokeColor=inherit;overflow=hidden;fillColor=none;top=0;left=0;bottom=0;right=0;pointerEvents=1;fontSize=12;align=left;spacingLeft=5;" vertex="1" parent="aP-amQ2ksOcE-99S3hjg-82">
          <mxGeometry width="110" height="15" as="geometry">
            <mxRectangle width="110" height="15" as="alternateBounds" />
          </mxGeometry>
        </mxCell>
        <mxCell id="aP-amQ2ksOcE-99S3hjg-84" value="оплачен" style="shape=partialRectangle;html=1;whiteSpace=wrap;connectable=0;strokeColor=inherit;overflow=hidden;fillColor=none;top=0;left=0;bottom=0;right=0;pointerEvents=1;fontSize=12;align=left;spacingLeft=5;" vertex="1" parent="WIyWlLk6GJQsqaUBKTNV-1">
          <mxGeometry x="962" y="820" width="110" height="15" as="geometry">
            <mxRectangle width="110" height="15" as="alternateBounds" />
          </mxGeometry>
        </mxCell>
        <mxCell id="aP-amQ2ksOcE-99S3hjg-85" style="edgeStyle=orthogonalEdgeStyle;rounded=0;orthogonalLoop=1;jettySize=auto;html=1;exitX=1;exitY=0.5;exitDx=0;exitDy=0;entryX=0;entryY=0.5;entryDx=0;entryDy=0;" edge="1" parent="WIyWlLk6GJQsqaUBKTNV-1" source="aP-amQ2ksOcE-99S3hjg-63" target="aP-amQ2ksOcE-99S3hjg-68">
          <mxGeometry relative="1" as="geometry" />
        </mxCell>
        <mxCell id="aP-amQ2ksOcE-99S3hjg-86" value="Order_type" style="swimlane;fontStyle=2;align=center;verticalAlign=top;childLayout=stackLayout;horizontal=1;startSize=26;horizontalStack=0;resizeParent=1;resizeLast=0;collapsible=1;marginBottom=0;rounded=0;shadow=0;strokeWidth=1;" vertex="1" parent="WIyWlLk6GJQsqaUBKTNV-1">
          <mxGeometry x="761" y="910" width="170" height="80" as="geometry">
            <mxRectangle x="230" y="140" width="160" height="26" as="alternateBounds" />
          </mxGeometry>
        </mxCell>
        <mxCell id="aP-amQ2ksOcE-99S3hjg-87" value="id - id в постгрес&#xa;" style="text;align=left;verticalAlign=top;spacingLeft=4;spacingRight=4;overflow=hidden;rotatable=0;points=[[0,0.5],[1,0.5]];portConstraint=eastwest;" vertex="1" parent="aP-amQ2ksOcE-99S3hjg-86">
          <mxGeometry y="26" width="170" height="26" as="geometry" />
        </mxCell>
        <mxCell id="aP-amQ2ksOcE-99S3hjg-88" value="order_type_name - имя" style="text;align=left;verticalAlign=top;spacingLeft=4;spacingRight=4;overflow=hidden;rotatable=0;points=[[0,0.5],[1,0.5]];portConstraint=eastwest;" vertex="1" parent="aP-amQ2ksOcE-99S3hjg-86">
          <mxGeometry y="52" width="170" height="28" as="geometry" />
        </mxCell>
        <mxCell id="aP-amQ2ksOcE-99S3hjg-90" value="" style="endArrow=none;html=1;rounded=0;entryX=0.018;entryY=0.822;entryDx=0;entryDy=0;entryPerimeter=0;exitX=0.996;exitY=0.154;exitDx=0;exitDy=0;exitPerimeter=0;" edge="1" parent="WIyWlLk6GJQsqaUBKTNV-1" source="aP-amQ2ksOcE-99S3hjg-67" target="aP-amQ2ksOcE-99S3hjg-76">
          <mxGeometry width="50" height="50" relative="1" as="geometry">
            <mxPoint x="791" y="920" as="sourcePoint" />
            <mxPoint x="841" y="870" as="targetPoint" />
          </mxGeometry>
        </mxCell>
        <mxCell id="aP-amQ2ksOcE-99S3hjg-92" value="" style="shape=table;startSize=0;container=1;collapsible=0;childLayout=tableLayout;fontSize=11;fillColor=none;strokeColor=none;" vertex="1" parent="WIyWlLk6GJQsqaUBKTNV-1">
          <mxGeometry x="961" y="910" width="110" height="61" as="geometry" />
        </mxCell>
        <mxCell id="aP-amQ2ksOcE-99S3hjg-93" value="" style="shape=tableRow;horizontal=0;startSize=0;swimlaneHead=0;swimlaneBody=0;strokeColor=inherit;top=0;left=0;bottom=0;right=0;collapsible=0;dropTarget=0;fillColor=none;points=[[0,0.5],[1,0.5]];portConstraint=eastwest;fontSize=16;" vertex="1" parent="aP-amQ2ksOcE-99S3hjg-92">
          <mxGeometry width="110" height="20" as="geometry" />
        </mxCell>
        <mxCell id="aP-amQ2ksOcE-99S3hjg-94" value="самовывоз" style="shape=partialRectangle;html=1;whiteSpace=wrap;connectable=0;strokeColor=inherit;overflow=hidden;fillColor=none;top=0;left=0;bottom=0;right=0;pointerEvents=1;fontSize=12;align=left;spacingLeft=5;" vertex="1" parent="aP-amQ2ksOcE-99S3hjg-93">
          <mxGeometry width="110" height="20" as="geometry">
            <mxRectangle width="110" height="20" as="alternateBounds" />
          </mxGeometry>
        </mxCell>
        <mxCell id="aP-amQ2ksOcE-99S3hjg-95" value="" style="shape=tableRow;horizontal=0;startSize=0;swimlaneHead=0;swimlaneBody=0;strokeColor=inherit;top=0;left=0;bottom=0;right=0;collapsible=0;dropTarget=0;fillColor=none;points=[[0,0.5],[1,0.5]];portConstraint=eastwest;fontSize=16;" vertex="1" parent="aP-amQ2ksOcE-99S3hjg-92">
          <mxGeometry y="20" width="110" height="21" as="geometry" />
        </mxCell>
        <mxCell id="aP-amQ2ksOcE-99S3hjg-96" value="курьером" style="shape=partialRectangle;html=1;whiteSpace=wrap;connectable=0;strokeColor=inherit;overflow=hidden;fillColor=none;top=0;left=0;bottom=0;right=0;pointerEvents=1;fontSize=12;align=left;spacingLeft=5;" vertex="1" parent="aP-amQ2ksOcE-99S3hjg-95">
          <mxGeometry width="110" height="21" as="geometry">
            <mxRectangle width="110" height="21" as="alternateBounds" />
          </mxGeometry>
        </mxCell>
        <mxCell id="aP-amQ2ksOcE-99S3hjg-97" value="" style="shape=tableRow;horizontal=0;startSize=0;swimlaneHead=0;swimlaneBody=0;strokeColor=inherit;top=0;left=0;bottom=0;right=0;collapsible=0;dropTarget=0;fillColor=none;points=[[0,0.5],[1,0.5]];portConstraint=eastwest;fontSize=16;" vertex="1" parent="aP-amQ2ksOcE-99S3hjg-92">
          <mxGeometry y="41" width="110" height="20" as="geometry" />
        </mxCell>
        <mxCell id="aP-amQ2ksOcE-99S3hjg-98" value="предзаказ" style="shape=partialRectangle;html=1;whiteSpace=wrap;connectable=0;strokeColor=inherit;overflow=hidden;fillColor=none;top=0;left=0;bottom=0;right=0;pointerEvents=1;fontSize=12;align=left;spacingLeft=5;" vertex="1" parent="aP-amQ2ksOcE-99S3hjg-97">
          <mxGeometry width="110" height="20" as="geometry">
            <mxRectangle width="110" height="20" as="alternateBounds" />
          </mxGeometry>
        </mxCell>
        <mxCell id="aP-amQ2ksOcE-99S3hjg-104" value="" style="endArrow=none;html=1;rounded=0;entryX=0;entryY=0.5;entryDx=0;entryDy=0;exitX=1;exitY=0.122;exitDx=0;exitDy=0;exitPerimeter=0;" edge="1" parent="WIyWlLk6GJQsqaUBKTNV-1" source="aP-amQ2ksOcE-99S3hjg-86" target="aP-amQ2ksOcE-99S3hjg-93">
          <mxGeometry width="50" height="50" relative="1" as="geometry">
            <mxPoint x="932" y="920" as="sourcePoint" />
            <mxPoint x="983" y="782" as="targetPoint" />
          </mxGeometry>
        </mxCell>
        <mxCell id="aP-amQ2ksOcE-99S3hjg-105" style="edgeStyle=orthogonalEdgeStyle;rounded=0;orthogonalLoop=1;jettySize=auto;html=1;exitX=1;exitY=0.5;exitDx=0;exitDy=0;entryX=0;entryY=0.5;entryDx=0;entryDy=0;" edge="1" parent="WIyWlLk6GJQsqaUBKTNV-1" source="aP-amQ2ksOcE-99S3hjg-64" target="aP-amQ2ksOcE-99S3hjg-87">
          <mxGeometry relative="1" as="geometry" />
        </mxCell>
        <mxCell id="aP-amQ2ksOcE-99S3hjg-107" value="" style="endArrow=none;html=1;rounded=0;" edge="1" parent="WIyWlLk6GJQsqaUBKTNV-1">
          <mxGeometry width="50" height="50" relative="1" as="geometry">
            <mxPoint x="-80" y="1080" as="sourcePoint" />
            <mxPoint x="840" y="1080" as="targetPoint" />
          </mxGeometry>
        </mxCell>
        <mxCell id="aP-amQ2ksOcE-99S3hjg-108" value="Table_reservations" style="swimlane;fontStyle=2;align=center;verticalAlign=top;childLayout=stackLayout;horizontal=1;startSize=26;horizontalStack=0;resizeParent=1;resizeLast=0;collapsible=1;marginBottom=0;rounded=0;shadow=0;strokeWidth=1;" vertex="1" parent="WIyWlLk6GJQsqaUBKTNV-1">
          <mxGeometry x="80" y="1120" width="160" height="170" as="geometry">
            <mxRectangle x="230" y="140" width="160" height="26" as="alternateBounds" />
          </mxGeometry>
        </mxCell>
        <mxCell id="aP-amQ2ksOcE-99S3hjg-109" value="id - id в постгрес&#xa;" style="text;align=left;verticalAlign=top;spacingLeft=4;spacingRight=4;overflow=hidden;rotatable=0;points=[[0,0.5],[1,0.5]];portConstraint=eastwest;" vertex="1" parent="aP-amQ2ksOcE-99S3hjg-108">
          <mxGeometry y="26" width="160" height="26" as="geometry" />
        </mxCell>
        <mxCell id="aP-amQ2ksOcE-99S3hjg-110" value="name - имя" style="text;align=left;verticalAlign=top;spacingLeft=4;spacingRight=4;overflow=hidden;rotatable=0;points=[[0,0.5],[1,0.5]];portConstraint=eastwest;" vertex="1" parent="aP-amQ2ksOcE-99S3hjg-108">
          <mxGeometry y="52" width="160" height="28" as="geometry" />
        </mxCell>
        <mxCell id="aP-amQ2ksOcE-99S3hjg-111" value="phone - телефон" style="text;align=left;verticalAlign=top;spacingLeft=4;spacingRight=4;overflow=hidden;rotatable=0;points=[[0,0.5],[1,0.5]];portConstraint=eastwest;rounded=0;shadow=0;html=0;" vertex="1" parent="aP-amQ2ksOcE-99S3hjg-108">
          <mxGeometry y="80" width="160" height="32" as="geometry" />
        </mxCell>
        <mxCell id="aP-amQ2ksOcE-99S3hjg-112" value="date_order - дата заказа" style="text;align=left;verticalAlign=top;spacingLeft=4;spacingRight=4;overflow=hidden;rotatable=0;points=[[0,0.5],[1,0.5]];portConstraint=eastwest;rounded=0;shadow=0;html=0;" vertex="1" parent="aP-amQ2ksOcE-99S3hjg-108">
          <mxGeometry y="112" width="160" height="28" as="geometry" />
        </mxCell>
        <mxCell id="aP-amQ2ksOcE-99S3hjg-113" value="comment -  комментарий" style="text;align=left;verticalAlign=top;spacingLeft=4;spacingRight=4;overflow=hidden;rotatable=0;points=[[0,0.5],[1,0.5]];portConstraint=eastwest;rounded=0;shadow=0;html=0;" vertex="1" parent="aP-amQ2ksOcE-99S3hjg-108">
          <mxGeometry y="140" width="160" height="30" as="geometry" />
        </mxCell>
        <mxCell id="aP-amQ2ksOcE-99S3hjg-116" value="" style="rounded=0;whiteSpace=wrap;html=1;" vertex="1" parent="WIyWlLk6GJQsqaUBKTNV-1">
          <mxGeometry x="-160" y="1120" width="110" height="30" as="geometry" />
        </mxCell>
        <mxCell id="aP-amQ2ksOcE-99S3hjg-117" value="клиенты" style="text;align=left;verticalAlign=top;spacingLeft=4;spacingRight=4;overflow=hidden;rotatable=0;points=[[0,0.5],[1,0.5]];portConstraint=eastwest;" vertex="1" parent="WIyWlLk6GJQsqaUBKTNV-1">
          <mxGeometry x="-160" y="1120" width="110" height="26" as="geometry" />
        </mxCell>
        <mxCell id="aP-amQ2ksOcE-99S3hjg-120" value="id на обьект из таблицы Dish" style="text;html=1;align=center;verticalAlign=middle;whiteSpace=wrap;rounded=0;" vertex="1" parent="WIyWlLk6GJQsqaUBKTNV-1">
          <mxGeometry x="340" y="841" width="120" height="30" as="geometry" />
        </mxCell>
        <mxCell id="aP-amQ2ksOcE-99S3hjg-121" value="" style="endArrow=none;html=1;rounded=0;" edge="1" parent="WIyWlLk6GJQsqaUBKTNV-1">
          <mxGeometry width="50" height="50" relative="1" as="geometry">
            <mxPoint x="-80" y="1360" as="sourcePoint" />
            <mxPoint x="840" y="1360" as="targetPoint" />
          </mxGeometry>
        </mxCell>
        <mxCell id="aP-amQ2ksOcE-99S3hjg-122" value="kitchen" style="swimlane;fontStyle=2;align=center;verticalAlign=top;childLayout=stackLayout;horizontal=1;startSize=26;horizontalStack=0;resizeParent=1;resizeLast=0;collapsible=1;marginBottom=0;rounded=0;shadow=0;strokeWidth=1;" vertex="1" parent="WIyWlLk6GJQsqaUBKTNV-1">
          <mxGeometry x="80" y="1400" width="160" height="170" as="geometry">
            <mxRectangle x="230" y="140" width="160" height="26" as="alternateBounds" />
          </mxGeometry>
        </mxCell>
        <mxCell id="aP-amQ2ksOcE-99S3hjg-123" value="id - id в постгрес&#xa;" style="text;align=left;verticalAlign=top;spacingLeft=4;spacingRight=4;overflow=hidden;rotatable=0;points=[[0,0.5],[1,0.5]];portConstraint=eastwest;" vertex="1" parent="aP-amQ2ksOcE-99S3hjg-122">
          <mxGeometry y="26" width="160" height="26" as="geometry" />
        </mxCell>
        <mxCell id="aP-amQ2ksOcE-99S3hjg-124" value="name - имя" style="text;align=left;verticalAlign=top;spacingLeft=4;spacingRight=4;overflow=hidden;rotatable=0;points=[[0,0.5],[1,0.5]];portConstraint=eastwest;" vertex="1" parent="aP-amQ2ksOcE-99S3hjg-122">
          <mxGeometry y="52" width="160" height="28" as="geometry" />
        </mxCell>
        <mxCell id="aP-amQ2ksOcE-99S3hjg-125" value="phone - телефон" style="text;align=left;verticalAlign=top;spacingLeft=4;spacingRight=4;overflow=hidden;rotatable=0;points=[[0,0.5],[1,0.5]];portConstraint=eastwest;rounded=0;shadow=0;html=0;" vertex="1" parent="aP-amQ2ksOcE-99S3hjg-122">
          <mxGeometry y="80" width="160" height="32" as="geometry" />
        </mxCell>
        <mxCell id="aP-amQ2ksOcE-99S3hjg-126" value="date_order - дата заказа" style="text;align=left;verticalAlign=top;spacingLeft=4;spacingRight=4;overflow=hidden;rotatable=0;points=[[0,0.5],[1,0.5]];portConstraint=eastwest;rounded=0;shadow=0;html=0;" vertex="1" parent="aP-amQ2ksOcE-99S3hjg-122">
          <mxGeometry y="112" width="160" height="28" as="geometry" />
        </mxCell>
        <mxCell id="aP-amQ2ksOcE-99S3hjg-127" value="comment -  комментарий" style="text;align=left;verticalAlign=top;spacingLeft=4;spacingRight=4;overflow=hidden;rotatable=0;points=[[0,0.5],[1,0.5]];portConstraint=eastwest;rounded=0;shadow=0;html=0;" vertex="1" parent="aP-amQ2ksOcE-99S3hjg-122">
          <mxGeometry y="140" width="160" height="30" as="geometry" />
        </mxCell>
        <mxCell id="aP-amQ2ksOcE-99S3hjg-128" value="" style="rounded=0;whiteSpace=wrap;html=1;" vertex="1" parent="WIyWlLk6GJQsqaUBKTNV-1">
          <mxGeometry x="-160" y="1400" width="110" height="30" as="geometry" />
        </mxCell>
        <mxCell id="aP-amQ2ksOcE-99S3hjg-129" value="кухня" style="text;align=left;verticalAlign=top;spacingLeft=4;spacingRight=4;overflow=hidden;rotatable=0;points=[[0,0.5],[1,0.5]];portConstraint=eastwest;" vertex="1" parent="WIyWlLk6GJQsqaUBKTNV-1">
          <mxGeometry x="-160" y="1400" width="110" height="26" as="geometry" />
        </mxCell>
      </root>
    </mxGraphModel>
  </diagram>
</mxfile>
